<svg width="20" height="21" viewBox="0 0 20 21" fill="none" xmlns="http://www.w3.org/2000/svg">
<mask id="mask0_44_1397" style="mask-type:alpha" maskUnits="userSpaceOnUse" x="0" y="0" width="20" height="21">
<rect y="0.619141" width="20" height="20" fill="#D9D9D9"/>
</mask>
<g mask="url(#mask0_44_1397)">
<path d="M5.62533 9.78564C5.80588 9.78564 5.95519 9.72662 6.07324 9.60856C6.1913 9.49051 6.25033 9.3412 6.25033 9.16064V8.74398C6.25033 8.56342 6.1913 8.41412 6.07324 8.29606C5.95519 8.17801 5.80588 8.11898 5.62533 8.11898C5.44477 8.11898 5.29546 8.17801 5.17741 8.29606C5.05935 8.41412 5.00033 8.56342 5.00033 8.74398V9.16064C5.00033 9.3412 5.05935 9.49051 5.17741 9.60856C5.29546 9.72662 5.44477 9.78564 5.62533 9.78564ZM7.70866 11.4523C7.88921 11.4523 8.03852 11.3933 8.15658 11.2752C8.27463 11.1572 8.33366 11.0079 8.33366 10.8273V7.07731C8.33366 6.89676 8.27463 6.74745 8.15658 6.62939C8.03852 6.51134 7.88921 6.45231 7.70866 6.45231C7.5281 6.45231 7.3788 6.51134 7.26074 6.62939C7.14269 6.74745 7.08366 6.89676 7.08366 7.07731V10.8273C7.08366 11.0079 7.14269 11.1572 7.26074 11.2752C7.3788 11.3933 7.5281 11.4523 7.70866 11.4523ZM10.0003 13.119C10.1809 13.119 10.3302 13.0599 10.4482 12.9419C10.5663 12.8238 10.6253 12.6745 10.6253 12.494V5.41064C10.6253 5.23009 10.5663 5.08078 10.4482 4.96273C10.3302 4.84467 10.1809 4.78564 10.0003 4.78564C9.81977 4.78564 9.67047 4.84467 9.55241 4.96273C9.43435 5.08078 9.37533 5.23009 9.37533 5.41064V12.494C9.37533 12.6745 9.43435 12.8238 9.55241 12.9419C9.67047 13.0599 9.81977 13.119 10.0003 13.119ZM12.292 11.4523C12.4725 11.4523 12.6219 11.3933 12.7399 11.2752C12.858 11.1572 12.917 11.0079 12.917 10.8273V7.07731C12.917 6.89676 12.858 6.74745 12.7399 6.62939C12.6219 6.51134 12.4725 6.45231 12.292 6.45231C12.1114 6.45231 11.9621 6.51134 11.8441 6.62939C11.726 6.74745 11.667 6.89676 11.667 7.07731V10.8273C11.667 11.0079 11.726 11.1572 11.8441 11.2752C11.9621 11.3933 12.1114 11.4523 12.292 11.4523ZM14.3753 9.78564C14.5559 9.78564 14.7052 9.72662 14.8232 9.60856C14.9413 9.49051 15.0003 9.3412 15.0003 9.16064V8.74398C15.0003 8.56342 14.9413 8.41412 14.8232 8.29606C14.7052 8.17801 14.5559 8.11898 14.3753 8.11898C14.1948 8.11898 14.0455 8.17801 13.9274 8.29606C13.8094 8.41412 13.7503 8.56342 13.7503 8.74398V9.16064C13.7503 9.3412 13.8094 9.49051 13.9274 9.60856C14.0455 9.72662 14.1948 9.78564 14.3753 9.78564ZM5.00033 15.619L3.08366 17.5356C2.81977 17.7995 2.51769 17.8586 2.17741 17.7127C1.83713 17.5669 1.66699 17.3065 1.66699 16.9315V3.95231C1.66699 3.49398 1.83019 3.10162 2.15658 2.77523C2.48296 2.44884 2.87533 2.28564 3.33366 2.28564H16.667C17.1253 2.28564 17.5177 2.44884 17.8441 2.77523C18.1705 3.10162 18.3337 3.49398 18.3337 3.95231V13.9523C18.3337 14.4106 18.1705 14.803 17.8441 15.1294C17.5177 15.4558 17.1253 15.619 16.667 15.619H5.00033Z" fill="#131523"/>
</g>
</svg>
