<svg width="28" height="29" viewBox="0 0 28 29" fill="none" xmlns="http://www.w3.org/2000/svg">
<mask id="mask0_45_137" style="mask-type:alpha" maskUnits="userSpaceOnUse" x="0" y="0" width="28" height="29">
<rect y="0.5" width="28" height="28" fill="#D9D9D9"/>
</mask>
<g mask="url(#mask0_45_137)">
<path d="M7.87467 13.3335C8.12745 13.3335 8.33648 13.2509 8.50176 13.0856C8.66704 12.9203 8.74967 12.7113 8.74967 12.4585V11.8752C8.74967 11.6224 8.66704 11.4134 8.50176 11.2481C8.33648 11.0828 8.12745 11.0002 7.87467 11.0002C7.6219 11.0002 7.41287 11.0828 7.24759 11.2481C7.08231 11.4134 6.99967 11.6224 6.99967 11.8752V12.4585C6.99967 12.7113 7.08231 12.9203 7.24759 13.0856C7.41287 13.2509 7.6219 13.3335 7.87467 13.3335ZM10.7913 15.6668C11.0441 15.6668 11.2531 15.5842 11.4184 15.4189C11.5837 15.2536 11.6663 15.0446 11.6663 14.7918V9.54183C11.6663 9.28905 11.5837 9.08002 11.4184 8.91475C11.2531 8.74947 11.0441 8.66683 10.7913 8.66683C10.5386 8.66683 10.3295 8.74947 10.1643 8.91475C9.99898 9.08002 9.91634 9.28905 9.91634 9.54183V14.7918C9.91634 15.0446 9.99898 15.2536 10.1643 15.4189C10.3295 15.5842 10.5386 15.6668 10.7913 15.6668ZM13.9997 18.0002C14.2525 18.0002 14.4615 17.9175 14.6268 17.7522C14.792 17.587 14.8747 17.3779 14.8747 17.1252V7.2085C14.8747 6.95572 14.792 6.74669 14.6268 6.58141C14.4615 6.41614 14.2525 6.3335 13.9997 6.3335C13.7469 6.3335 13.5379 6.41614 13.3726 6.58141C13.2073 6.74669 13.1247 6.95572 13.1247 7.2085V17.1252C13.1247 17.3779 13.2073 17.587 13.3726 17.7522C13.5379 17.9175 13.7469 18.0002 13.9997 18.0002ZM17.208 15.6668C17.4608 15.6668 17.6698 15.5842 17.8351 15.4189C18.0004 15.2536 18.083 15.0446 18.083 14.7918V9.54183C18.083 9.28905 18.0004 9.08002 17.8351 8.91475C17.6698 8.74947 17.4608 8.66683 17.208 8.66683C16.9552 8.66683 16.7462 8.74947 16.5809 8.91475C16.4156 9.08002 16.333 9.28905 16.333 9.54183V14.7918C16.333 15.0446 16.4156 15.2536 16.5809 15.4189C16.7462 15.5842 16.9552 15.6668 17.208 15.6668ZM20.1247 13.3335C20.3775 13.3335 20.5865 13.2509 20.7518 13.0856C20.917 12.9203 20.9997 12.7113 20.9997 12.4585V11.8752C20.9997 11.6224 20.917 11.4134 20.7518 11.2481C20.5865 11.0828 20.3775 11.0002 20.1247 11.0002C19.8719 11.0002 19.6629 11.0828 19.4976 11.2481C19.3323 11.4134 19.2497 11.6224 19.2497 11.8752V12.4585C19.2497 12.7113 19.3323 12.9203 19.4976 13.0856C19.6629 13.2509 19.8719 13.3335 20.1247 13.3335ZM6.99967 21.5002L4.31634 24.1835C3.9469 24.5529 3.52398 24.6356 3.04759 24.4314C2.5712 24.2272 2.33301 23.8627 2.33301 23.3377V5.16683C2.33301 4.52516 2.56148 3.97586 3.01842 3.51891C3.47537 3.06197 4.02467 2.8335 4.66634 2.8335H23.333C23.9747 2.8335 24.524 3.06197 24.9809 3.51891C25.4379 3.97586 25.6663 4.52516 25.6663 5.16683V19.1668C25.6663 19.8085 25.4379 20.3578 24.9809 20.8147C24.524 21.2717 23.9747 21.5002 23.333 21.5002H6.99967Z" fill="#5A607F"/>
</g>
</svg>
