<svg width="28" height="29" viewBox="0 0 28 29" fill="none" xmlns="http://www.w3.org/2000/svg">
<mask id="mask0_45_119" style="mask-type:alpha" maskUnits="userSpaceOnUse" x="0" y="0" width="28" height="29">
<rect y="0.5" width="28" height="28" fill="#D9D9D9"/>
</mask>
<g mask="url(#mask0_45_119)">
<path d="M13.9997 18.0002C14.9719 18.0002 15.7983 17.6599 16.4788 16.9793C17.1594 16.2988 17.4997 15.4724 17.4997 14.5002C17.4997 13.5279 17.1594 12.7016 16.4788 12.021C15.7983 11.3404 14.9719 11.0002 13.9997 11.0002C13.0275 11.0002 12.2011 11.3404 11.5205 12.021C10.84 12.7016 10.4997 13.5279 10.4997 14.5002C10.4997 15.4724 10.84 16.2988 11.5205 16.9793C12.2011 17.6599 13.0275 18.0002 13.9997 18.0002ZM13.9997 26.1668C12.3858 26.1668 10.8691 25.8606 9.44968 25.2481C8.03023 24.6356 6.79551 23.8043 5.74551 22.7543C4.69551 21.7043 3.86426 20.4696 3.25176 19.0502C2.63926 17.6307 2.33301 16.1141 2.33301 14.5002C2.33301 12.8863 2.63926 11.3696 3.25176 9.95016C3.86426 8.53072 4.69551 7.296 5.74551 6.246C6.79551 5.196 8.03023 4.36475 9.44968 3.75225C10.8691 3.13975 12.3858 2.8335 13.9997 2.8335C15.6136 2.8335 17.1302 3.13975 18.5497 3.75225C19.9691 4.36475 21.2038 5.196 22.2538 6.246C23.3038 7.296 24.1351 8.53072 24.7476 9.95016C25.3601 11.3696 25.6663 12.8863 25.6663 14.5002C25.6663 16.1141 25.3601 17.6307 24.7476 19.0502C24.1351 20.4696 23.3038 21.7043 22.2538 22.7543C21.2038 23.8043 19.9691 24.6356 18.5497 25.2481C17.1302 25.8606 15.6136 26.1668 13.9997 26.1668Z" fill="#5A607F"/>
</g>
</svg>
