<svg width="29" height="28" viewBox="0 0 29 28" fill="none" xmlns="http://www.w3.org/2000/svg">
<mask id="mask0_29_620" style="mask-type:alpha" maskUnits="userSpaceOnUse" x="0" y="0" width="29" height="28">
<rect x="0.5" width="28" height="28" fill="#D9D9D9"/>
</mask>
<g mask="url(#mask0_29_620)">
<path d="M13.1294 25.6668C12.6044 25.6668 12.1523 25.4918 11.7731 25.1418C11.394 24.7918 11.1655 24.3641 11.0877 23.8585L10.8252 21.9335C10.5724 21.8363 10.3342 21.7196 10.1106 21.5835C9.88703 21.4474 9.66828 21.3016 9.45439 21.146L7.64606 21.9043C7.15994 22.1182 6.67383 22.1377 6.18772 21.9627C5.70161 21.7877 5.32244 21.4766 5.05022 21.0293L3.67939 18.6377C3.40717 18.1904 3.32939 17.7141 3.44605 17.2085C3.56272 16.7029 3.82522 16.2849 4.23355 15.9543L5.77939 14.7877C5.75994 14.6516 5.75022 14.5203 5.75022 14.3939V13.6064C5.75022 13.48 5.75994 13.3488 5.77939 13.2127L4.23355 12.046C3.82522 11.7154 3.56272 11.2974 3.44605 10.7918C3.32939 10.2863 3.40717 9.80989 3.67939 9.36266L5.05022 6.971C5.32244 6.52377 5.70161 6.21266 6.18772 6.03766C6.67383 5.86266 7.15994 5.88211 7.64606 6.096L9.45439 6.85433C9.66828 6.69877 9.89189 6.55294 10.1252 6.41683C10.3586 6.28072 10.5919 6.16405 10.8252 6.06683L11.0877 4.14183C11.1655 3.63627 11.394 3.2085 11.7731 2.8585C12.1523 2.5085 12.6044 2.3335 13.1294 2.3335H15.8711C16.3961 2.3335 16.8481 2.5085 17.2273 2.8585C17.6065 3.2085 17.8349 3.63627 17.9127 4.14183L18.1752 6.06683C18.428 6.16405 18.6662 6.28072 18.8898 6.41683C19.1134 6.55294 19.3322 6.69877 19.5461 6.85433L21.3544 6.096C21.8405 5.88211 22.3266 5.86266 22.8127 6.03766C23.2988 6.21266 23.678 6.52377 23.9502 6.971L25.3211 9.36266C25.5933 9.80989 25.6711 10.2863 25.5544 10.7918C25.4377 11.2974 25.1752 11.7154 24.7669 12.046L23.2211 13.2127C23.2405 13.3488 23.2502 13.48 23.2502 13.6064V14.3939C23.2502 14.5203 23.2308 14.6516 23.1919 14.7877L24.7377 15.9543C25.1461 16.2849 25.4086 16.7029 25.5252 17.2085C25.6419 17.7141 25.5641 18.1904 25.2919 18.6377L23.8919 21.0293C23.6197 21.4766 23.2405 21.7877 22.7544 21.9627C22.2683 22.1377 21.7822 22.1182 21.2961 21.9043L19.5461 21.146C19.3322 21.3016 19.1086 21.4474 18.8752 21.5835C18.6419 21.7196 18.4086 21.8363 18.1752 21.9335L17.9127 23.8585C17.8349 24.3641 17.6065 24.7918 17.2273 25.1418C16.8481 25.4918 16.3961 25.6668 15.8711 25.6668H13.1294ZM13.3336 23.3335H15.6377L16.0461 20.2418C16.6488 20.0863 17.2079 19.8578 17.7231 19.5564C18.2384 19.255 18.7099 18.8904 19.1377 18.4627L22.0252 19.6585L23.1627 17.6752L20.6544 15.7793C20.7516 15.5071 20.8197 15.2203 20.8586 14.9189C20.8974 14.6175 20.9169 14.3113 20.9169 14.0002C20.9169 13.6891 20.8974 13.3828 20.8586 13.0814C20.8197 12.78 20.7516 12.4932 20.6544 12.221L23.1627 10.3252L22.0252 8.34183L19.1377 9.56683C18.7099 9.11961 18.2384 8.7453 17.7231 8.44391C17.2079 8.14252 16.6488 7.91405 16.0461 7.7585L15.6669 4.66683H13.3627L12.9544 7.7585C12.3516 7.91405 11.7926 8.14252 11.2773 8.44391C10.762 8.7453 10.2905 9.10989 9.86272 9.53766L6.97522 8.34183L5.83772 10.3252L8.34606 12.1918C8.24883 12.4835 8.18078 12.7752 8.14189 13.0668C8.103 13.3585 8.08356 13.6696 8.08356 14.0002C8.08356 14.3113 8.103 14.6127 8.14189 14.9043C8.18078 15.196 8.24883 15.4877 8.34606 15.7793L5.83772 17.6752L6.97522 19.6585L9.86272 18.4335C10.2905 18.8807 10.762 19.255 11.2773 19.5564C11.7926 19.8578 12.3516 20.0863 12.9544 20.2418L13.3336 23.3335ZM14.5586 18.0835C15.6863 18.0835 16.6488 17.6849 17.4461 16.8877C18.2433 16.0904 18.6419 15.1279 18.6419 14.0002C18.6419 12.8724 18.2433 11.9099 17.4461 11.1127C16.6488 10.3154 15.6863 9.91683 14.5586 9.91683C13.4113 9.91683 12.444 10.3154 11.6565 11.1127C10.869 11.9099 10.4752 12.8724 10.4752 14.0002C10.4752 15.1279 10.869 16.0904 11.6565 16.8877C12.444 17.6849 13.4113 18.0835 14.5586 18.0835Z" fill="#1C1B1F"/>
</g>
</svg>
