<svg width="28" height="29" viewBox="0 0 28 29" fill="none" xmlns="http://www.w3.org/2000/svg">
<mask id="mask0_45_131" style="mask-type:alpha" maskUnits="userSpaceOnUse" x="0" y="0" width="28" height="29">
<rect y="0.5" width="28" height="28" fill="#D9D9D9"/>
</mask>
<g mask="url(#mask0_45_131)">
<path d="M9.33333 20.3333C9.66389 20.3333 9.94097 20.2215 10.1646 19.9979C10.3882 19.7743 10.5 19.4972 10.5 19.1667C10.5 18.8361 10.3882 18.559 10.1646 18.3354C9.94097 18.1118 9.66389 18 9.33333 18C9.00278 18 8.72569 18.1118 8.50208 18.3354C8.27847 18.559 8.16667 18.8361 8.16667 19.1667C8.16667 19.4972 8.27847 19.7743 8.50208 19.9979C8.72569 20.2215 9.00278 20.3333 9.33333 20.3333ZM9.33333 15.6667C9.66389 15.6667 9.94097 15.5549 10.1646 15.3313C10.3882 15.1076 10.5 14.8306 10.5 14.5C10.5 14.1694 10.3882 13.8924 10.1646 13.6687C9.94097 13.4451 9.66389 13.3333 9.33333 13.3333C9.00278 13.3333 8.72569 13.4451 8.50208 13.6687C8.27847 13.8924 8.16667 14.1694 8.16667 14.5C8.16667 14.8306 8.27847 15.1076 8.50208 15.3313C8.72569 15.5549 9.00278 15.6667 9.33333 15.6667ZM9.33333 11C9.66389 11 9.94097 10.8882 10.1646 10.6646C10.3882 10.441 10.5 10.1639 10.5 9.83333C10.5 9.50278 10.3882 9.22569 10.1646 9.00208C9.94097 8.77847 9.66389 8.66667 9.33333 8.66667C9.00278 8.66667 8.72569 8.77847 8.50208 9.00208C8.27847 9.22569 8.16667 9.50278 8.16667 9.83333C8.16667 10.1639 8.27847 10.441 8.50208 10.6646C8.72569 10.8882 9.00278 11 9.33333 11ZM12.8333 20.3333H19.8333V18H12.8333V20.3333ZM12.8333 15.6667H19.8333V13.3333H12.8333V15.6667ZM12.8333 11H19.8333V8.66667H12.8333V11ZM5.83333 25C5.19167 25 4.64236 24.7715 4.18542 24.3146C3.72847 23.8576 3.5 23.3083 3.5 22.6667V6.33333C3.5 5.69167 3.72847 5.14236 4.18542 4.68542C4.64236 4.22847 5.19167 4 5.83333 4H22.1667C22.8083 4 23.3576 4.22847 23.8146 4.68542C24.2715 5.14236 24.5 5.69167 24.5 6.33333V22.6667C24.5 23.3083 24.2715 23.8576 23.8146 24.3146C23.3576 24.7715 22.8083 25 22.1667 25H5.83333Z" fill="#5A607F"/>
</g>
</svg>
