<svg width="28" height="29" viewBox="0 0 28 29" fill="none" xmlns="http://www.w3.org/2000/svg">
<mask id="mask0_45_125" style="mask-type:alpha" maskUnits="userSpaceOnUse" x="0" y="0" width="28" height="29">
<rect y="0.5" width="28" height="28" fill="#D9D9D9"/>
</mask>
<g mask="url(#mask0_45_125)">
<path d="M9.33301 18H18.6663V17.3583C18.6663 16.4833 18.2386 15.7882 17.383 15.2729C16.5275 14.7576 15.3997 14.5 13.9997 14.5C12.5997 14.5 11.4719 14.7576 10.6163 15.2729C9.76079 15.7882 9.33301 16.4833 9.33301 17.3583V18ZM13.9997 13.3333C14.6413 13.3333 15.1906 13.1049 15.6476 12.6479C16.1045 12.191 16.333 11.6417 16.333 11C16.333 10.3583 16.1045 9.80903 15.6476 9.35208C15.1906 8.89514 14.6413 8.66667 13.9997 8.66667C13.358 8.66667 12.8087 8.89514 12.3518 9.35208C11.8948 9.80903 11.6663 10.3583 11.6663 11C11.6663 11.6417 11.8948 12.191 12.3518 12.6479C12.8087 13.1049 13.358 13.3333 13.9997 13.3333ZM4.66634 22.6667C4.02467 22.6667 3.47537 22.4382 3.01842 21.9813C2.56148 21.5243 2.33301 20.975 2.33301 20.3333V6.33333C2.33301 5.69167 2.56148 5.14236 3.01842 4.68542C3.47537 4.22847 4.02467 4 4.66634 4H23.333C23.9747 4 24.524 4.22847 24.9809 4.68542C25.4379 5.14236 25.6663 5.69167 25.6663 6.33333V20.3333C25.6663 20.975 25.4379 21.5243 24.9809 21.9813C24.524 22.4382 23.9747 22.6667 23.333 22.6667H18.6663V23.8333C18.6663 24.1639 18.5545 24.441 18.3309 24.6646C18.1073 24.8882 17.8302 25 17.4997 25H10.4997C10.1691 25 9.89204 24.8882 9.66843 24.6646C9.44481 24.441 9.33301 24.1639 9.33301 23.8333V22.6667H4.66634Z" fill="white"/>
</g>
</svg>
