<svg width="45" height="44" viewBox="0 0 45 44" fill="none" xmlns="http://www.w3.org/2000/svg">
<g clip-path="url(#clip0_718_1638)">
<path d="M22.498 0.445312C10.6051 0.445312 0.964844 10.0856 0.964844 21.9785C0.964844 24.835 1.52059 27.5581 2.53204 30.0479V30.0553L2.53574 30.059H5.38485C5.38485 30.059 5.38114 30.0553 5.38114 30.0516C5.38114 30.0516 5.37991 30.0491 5.37744 30.0442C5.28111 29.7589 5.1959 29.4699 5.11809 29.1735C5.07734 29.0253 5.04029 28.8771 5.00694 28.7289C4.98101 28.6103 4.95507 28.4918 4.93284 28.3732C4.91432 28.288 4.89579 28.2028 4.88098 28.1139C4.87357 28.062 4.86245 28.0138 4.85504 27.962C4.83652 27.8693 4.8217 27.7767 4.81058 27.6841C4.79206 27.5655 4.77724 27.4507 4.76242 27.3358C4.75501 27.2951 4.7513 27.2506 4.7476 27.2062C4.73278 27.0987 4.72166 26.9913 4.71425 26.8838C4.69943 26.7505 4.68832 26.6171 4.68461 26.4837C4.6772 26.4615 4.6772 26.4355 4.6772 26.4133C4.66609 26.2466 4.65868 26.0836 4.65497 25.9168C4.65497 25.8279 4.65127 25.7427 4.65127 25.6538C4.65127 25.2166 4.66979 24.7831 4.70314 24.3534C4.71055 24.257 4.71796 24.1607 4.72907 24.0644C4.74019 23.9532 4.75501 23.8421 4.76612 23.7309C5.75164 14.8465 13.2875 7.93672 22.435 7.93672C32.2568 7.93672 40.2188 15.8987 40.2188 25.7205C40.2188 35.5423 32.2568 43.5042 22.435 43.5042H22.2683C22.3461 43.5042 22.4202 43.5042 22.498 43.5042C34.3909 43.5042 44.0312 33.8677 44.0312 21.9748C44.0312 10.0819 34.3909 0.445312 22.498 0.445312Z" fill="url(#paint0_linear_718_1638)"/>
<path d="M5.37656 30.0443C5.37656 30.0443 5.37656 30.048 5.37656 30.0517V30.0591H5.1839C4.89121 28.8921 4.71337 27.6768 4.66521 26.4283C4.6578 26.2578 4.6541 26.0874 4.65039 25.917C4.6541 26.0837 4.66151 26.2467 4.67262 26.4135C4.67262 26.4357 4.67262 26.4616 4.68003 26.4838C4.68003 26.6172 4.69485 26.7506 4.70967 26.884C4.71708 26.9914 4.72819 27.0989 4.74301 27.2063C4.74672 27.2508 4.75042 27.2952 4.75783 27.336C4.77265 27.4545 4.78747 27.5694 4.806 27.6843C4.82082 27.7769 4.83564 27.8695 4.85046 27.9621C4.85787 28.014 4.86898 28.0622 4.87639 28.114C4.89121 28.2029 4.90974 28.2882 4.92826 28.3734C4.95049 28.4919 4.97643 28.6105 5.00236 28.729C5.03571 28.881 5.07275 29.0291 5.11351 29.1736C5.19131 29.47 5.27653 29.759 5.37286 30.0443H5.37656Z" fill="url(#paint1_linear_718_1638)"/>
<path d="M40.2183 25.7203C40.2183 35.5421 32.2564 43.504 22.4345 43.504H22.2678C22.19 43.504 22.1159 43.504 22.0381 43.5003C21.864 43.4966 21.6935 43.4892 21.5194 43.4818C21.3749 43.4744 21.2267 43.467 21.0822 43.4559C18.737 43.3077 16.4918 42.7816 14.4096 41.9368V39.047C14.5652 39.0951 14.7208 39.147 14.8801 39.1915C15.0209 39.2322 15.1654 39.273 15.3062 39.3063C15.4544 39.3471 15.6063 39.3841 15.7545 39.4175C15.9101 39.4508 16.0657 39.4842 16.225 39.5101C16.351 39.536 16.4807 39.5583 16.6103 39.5768C16.7956 39.6064 16.9808 39.6324 17.1661 39.6546C17.3254 39.6731 17.4847 39.6916 17.644 39.7028C17.807 39.7176 17.9701 39.7287 18.1331 39.7361H18.1368C18.3739 39.7472 18.611 39.7546 18.8518 39.7546C26.6952 39.7546 33.0566 33.3932 33.0566 25.5499C33.0566 17.7065 26.6952 11.3488 18.8518 11.3488C11.6235 11.3488 5.65852 16.7432 4.76562 23.7307C5.75114 14.8463 13.287 7.93652 22.4345 7.93652C32.2564 7.93652 40.2183 15.8985 40.2183 25.7203Z" fill="url(#paint2_linear_718_1638)"/>
<path d="M40.2183 25.7203C40.2183 35.5421 32.2564 43.504 22.4345 43.504H22.2678C22.19 43.504 22.1159 43.504 22.0381 43.5003C21.864 43.4966 21.6935 43.4892 21.5194 43.4818C21.3749 43.4744 21.2267 43.467 21.0822 43.4559C18.737 43.3077 16.4918 42.7816 14.4096 41.9368V39.047C14.5652 39.0951 14.7208 39.147 14.8801 39.1915C15.0209 39.2322 15.1654 39.273 15.3062 39.3063C15.4544 39.3471 15.6063 39.3841 15.7545 39.4175C15.9101 39.4508 16.0657 39.4842 16.225 39.5101C16.351 39.536 16.4807 39.5583 16.6103 39.5768C16.7956 39.6064 16.9808 39.6324 17.1661 39.6546C17.3254 39.6731 17.4847 39.6916 17.644 39.7028C17.807 39.7176 17.9701 39.7287 18.1331 39.7361H18.1368C18.3739 39.7472 18.611 39.7546 18.8518 39.7546C26.6952 39.7546 33.0566 33.3932 33.0566 25.5499C33.0566 17.7065 26.6952 11.3488 18.8518 11.3488C11.6235 11.3488 5.65852 16.7432 4.76562 23.7307C5.75114 14.8463 13.287 7.93652 22.4345 7.93652C32.2564 7.93652 40.2183 15.8985 40.2183 25.7203Z" fill="black" fill-opacity="0.2"/>
<path d="M40.2183 25.7203C40.2183 35.5421 32.2564 43.504 22.4345 43.504H22.2678C22.19 43.504 22.1159 43.504 22.0381 43.5003C21.864 43.4966 21.6935 43.4892 21.5194 43.4818C21.3749 43.4744 21.2267 43.467 21.0822 43.4559C18.737 43.3077 16.4918 42.7816 14.4096 41.9368V39.047C14.5652 39.0951 14.7208 39.147 14.8801 39.1915C15.0209 39.2322 15.1654 39.273 15.3062 39.3063C15.4544 39.3471 15.6063 39.3841 15.7545 39.4175C15.9101 39.4508 16.0657 39.4842 16.225 39.5101C16.351 39.536 16.4807 39.5583 16.6103 39.5768C16.7956 39.6064 16.9808 39.6324 17.1661 39.6546C17.3254 39.6731 17.4847 39.6916 17.644 39.7028C17.807 39.7176 17.9701 39.7287 18.1331 39.7361H18.1368C18.3739 39.7472 18.611 39.7546 18.8518 39.7546C26.6952 39.7546 33.0566 33.3932 33.0566 25.5499C33.0566 17.7065 26.6952 11.3488 18.8518 11.3488C11.6235 11.3488 5.65852 16.7432 4.76562 23.7307C5.75114 14.8463 13.287 7.93652 22.4345 7.93652C32.2564 7.93652 40.2183 15.8985 40.2183 25.7203Z" fill="black" fill-opacity="0.2"/>
<path d="M4.70226 24.3535C4.66892 24.7833 4.65039 25.2168 4.65039 25.654V25.5502C4.65039 25.1464 4.66892 24.7462 4.70226 24.3535Z" fill="url(#paint3_linear_718_1638)"/>
<path d="M23.239 21.2266V34.0198C23.239 35.6981 22.3536 37.2505 20.9086 38.1026L18.1373 39.7365H18.1336L18.1262 39.7439L14.7251 41.752L14.4102 41.9372V26.4357L23.239 21.2266Z" fill="url(#paint4_linear_718_1638)"/>
<path d="M23.239 21.2266V34.0198C23.239 35.6981 22.3536 37.2505 20.9086 38.1026L18.1373 39.7365H18.1336L18.1262 39.7439L14.7251 41.752L14.4102 41.9372V26.4357L23.239 21.2266Z" fill="black" fill-opacity="0.2"/>
<path d="M23.239 21.2266V34.0198C23.239 35.6981 22.3536 37.2505 20.9086 38.1026L18.1373 39.7365H18.1336L18.1262 39.7439L14.7251 41.752L14.4102 41.9372V26.4357L23.239 21.2266Z" fill="black" fill-opacity="0.2"/>
<path d="M23.24 21.2266V33.0157L22.7768 32.1673C22.0618 30.8668 20.6947 30.0592 19.2127 30.0592H2.5293H2.533V30.048L4.67076 26.4283L4.67817 26.4135L6.36392 23.557C7.21606 22.112 8.76843 21.2266 10.4468 21.2266H23.24Z" fill="url(#paint5_linear_718_1638)"/>
</g>
<defs>
<linearGradient id="paint0_linear_718_1638" x1="5.74251" y1="-10.8872" x2="22.7363" y2="61.9365" gradientUnits="userSpaceOnUse">
<stop stop-color="#17E180"/>
<stop offset="1" stop-color="#009883"/>
</linearGradient>
<linearGradient id="paint1_linear_718_1638" x1="4.9579" y1="25.817" x2="5.07275" y2="30.1147" gradientUnits="userSpaceOnUse">
<stop stop-color="#27E4A0"/>
<stop offset="1" stop-color="#229FD4"/>
</linearGradient>
<linearGradient id="paint2_linear_718_1638" x1="8.69865" y1="-1.42432" x2="22.7788" y2="58.7082" gradientUnits="userSpaceOnUse">
<stop stop-color="#17E180"/>
<stop offset="1" stop-color="#009883"/>
</linearGradient>
<linearGradient id="paint3_linear_718_1638" x1="4.6578" y1="24.3276" x2="4.69115" y2="25.6688" gradientUnits="userSpaceOnUse">
<stop stop-color="#27E4A0"/>
<stop offset="1" stop-color="#229FD4"/>
</linearGradient>
<linearGradient id="paint4_linear_718_1638" x1="15.3896" y1="15.7758" x2="30.9475" y2="44.1924" gradientUnits="userSpaceOnUse">
<stop stop-color="#17E180"/>
<stop offset="1" stop-color="#009883"/>
</linearGradient>
<linearGradient id="paint5_linear_718_1638" x1="4.82689" y1="18.1238" x2="7.57163" y2="38.7834" gradientUnits="userSpaceOnUse">
<stop stop-color="#17E180"/>
<stop offset="1" stop-color="#009883"/>
</linearGradient>
<clipPath id="clip0_718_1638">
<rect width="43.0663" height="43.0626" fill="white" transform="translate(0.964844 0.445312)"/>
</clipPath>
</defs>
</svg>
