<svg width="81" height="15" viewBox="0 0 81 15" fill="none" xmlns="http://www.w3.org/2000/svg">
<path d="M0.971797 10.7729C1.55846 10.9729 2.19846 11.1329 2.8918 11.2529C3.59846 11.3596 4.29846 11.4129 4.9918 11.4129C5.93846 11.4129 6.63846 11.3729 7.0918 11.2929C7.55846 11.1996 7.86513 11.0596 8.0118 10.8729C8.15846 10.6862 8.2318 10.4462 8.2318 10.1529C8.2318 9.89956 8.17846 9.69956 8.0718 9.55289C7.96513 9.40622 7.75846 9.29289 7.4518 9.21289C7.14513 9.11956 6.6918 9.04622 6.0918 8.99289L4.7718 8.87289C3.78513 8.77956 3.00513 8.57289 2.4318 8.25289C1.8718 7.93289 1.4718 7.50622 1.2318 6.97289C1.00513 6.42622 0.891797 5.77289 0.891797 5.01289C0.891797 4.10622 1.0718 3.37289 1.4318 2.81289C1.80513 2.25289 2.40513 1.84622 3.2318 1.59289C4.05846 1.32622 5.15846 1.19289 6.5318 1.19289C8.31846 1.19289 9.7918 1.42622 10.9518 1.89289L10.8918 4.61289L10.8318 4.69289C9.5118 4.22622 8.1318 3.99289 6.6918 3.99289C5.99846 3.99289 5.46513 4.03289 5.0918 4.11289C4.71846 4.17956 4.45846 4.29289 4.3118 4.45289C4.16513 4.61289 4.0918 4.83956 4.0918 5.13289C4.0918 5.42622 4.13846 5.64622 4.2318 5.79289C4.33846 5.93956 4.54513 6.05289 4.8518 6.13289C5.15846 6.19956 5.60513 6.26622 6.1918 6.33289L7.4518 6.47289C8.51846 6.59289 9.33846 6.80622 9.9118 7.11289C10.4851 7.41956 10.8785 7.83289 11.0918 8.35289C11.3185 8.85956 11.4318 9.47956 11.4318 10.2129C11.4318 11.1062 11.2385 11.8529 10.8518 12.4529C10.4785 13.0396 9.86513 13.4796 9.0118 13.7729C8.15846 14.0662 7.01846 14.2129 5.5918 14.2129C4.65846 14.2129 3.81846 14.1662 3.0718 14.0729C2.32513 13.9662 1.59846 13.8262 0.891797 13.6529V10.8329L0.971797 10.7729ZM25.5402 4.19289C26.5269 4.19289 27.3069 4.51956 27.8802 5.17289C28.4669 5.82622 28.7602 6.95956 28.7602 8.57289V14.0329H25.5602L25.5402 8.97289C25.5402 8.31956 25.4402 7.84622 25.2402 7.55289C25.0536 7.25956 24.6802 7.11289 24.1202 7.11289C23.5602 7.11289 23.1802 7.25956 22.9802 7.55289C22.7936 7.84622 22.7002 8.31956 22.7002 8.97289V14.0329H19.5002L19.4802 8.97289C19.4802 8.31956 19.3802 7.84622 19.1802 7.55289C18.9936 7.25956 18.6202 7.11289 18.0602 7.11289C17.5002 7.11289 17.1202 7.25956 16.9202 7.55289C16.7336 7.84622 16.6402 8.31956 16.6402 8.97289V14.0329H13.4402V4.29289H16.4802L16.6402 6.07289H16.7002C16.8736 5.48622 17.1736 5.02622 17.6002 4.69289C18.0402 4.35956 18.6602 4.19289 19.4602 4.19289C20.2602 4.19289 20.8869 4.35956 21.3402 4.69289C21.8069 5.02622 22.1069 5.48622 22.2402 6.07289H22.3002C22.4736 5.47289 22.8069 5.01289 23.3002 4.69289C23.8069 4.35956 24.5536 4.19289 25.5402 4.19289ZM33.9798 0.67289C34.0198 1.15289 34.0398 1.55289 34.0398 1.87289C34.0398 2.05956 34.0331 2.25289 34.0198 2.45289C34.0198 2.63956 34.0064 2.85289 33.9798 3.09289C33.6998 3.14622 33.4264 3.18622 33.1598 3.21289C32.8931 3.23956 32.6264 3.25289 32.3598 3.25289C32.1064 3.25289 31.8464 3.23956 31.5798 3.21289C31.3264 3.18622 31.0664 3.14622 30.7998 3.09289C30.7731 2.86622 30.7531 2.65956 30.7398 2.47289C30.7264 2.27289 30.7198 2.07956 30.7198 1.89289C30.7198 1.71956 30.7264 1.53289 30.7398 1.33289C30.7531 1.13289 30.7731 0.91289 30.7998 0.67289C31.0664 0.606223 31.3331 0.566223 31.5998 0.55289C31.8798 0.526223 32.1531 0.512889 32.4198 0.512889C32.6731 0.512889 32.9264 0.526223 33.1798 0.55289C33.4464 0.566223 33.7131 0.606223 33.9798 0.67289ZM33.9798 14.0329H30.7798V4.29289H33.9798V14.0329ZM36.3941 11.1129V6.91289H35.1941V4.31289H36.6941L37.2941 1.93289H39.5941V4.31289H41.7741V6.91289H39.5941V10.4129C39.5941 10.7862 39.6408 11.0462 39.7341 11.1929C39.8275 11.3262 40.0408 11.3929 40.3741 11.3929C40.5875 11.3929 40.8141 11.3862 41.0541 11.3729C41.2941 11.3462 41.5341 11.3196 41.7741 11.2929L41.8341 11.3329V13.9329C41.1941 14.1196 40.3475 14.2129 39.2941 14.2129C38.2408 14.2129 37.4941 13.9729 37.0541 13.4929C36.6141 13.0129 36.3941 12.2196 36.3941 11.1129ZM43.2355 7.69289C43.2355 6.07956 43.4155 4.79956 43.7755 3.85289C44.1489 2.90622 44.7822 2.22622 45.6755 1.81289C46.5822 1.39956 47.8422 1.19289 49.4555 1.19289C50.6689 1.19289 51.6755 1.30622 52.4755 1.53289C53.2755 1.75956 53.9089 2.12622 54.3755 2.63289C54.8422 3.13956 55.1689 3.81289 55.3555 4.65289C55.5555 5.47956 55.6555 6.49289 55.6555 7.69289C55.6555 8.90622 55.5555 9.93289 55.3555 10.7729C55.1689 11.5996 54.8422 12.2662 54.3755 12.7729C53.9089 13.2796 53.2755 13.6462 52.4755 13.8729C51.6755 14.0996 50.6689 14.2129 49.4555 14.2129C48.2422 14.2129 47.2355 14.0996 46.4355 13.8729C45.6355 13.6462 45.0022 13.2796 44.5355 12.7729C44.0689 12.2662 43.7355 11.5996 43.5355 10.7729C43.3355 9.93289 43.2355 8.90622 43.2355 7.69289ZM49.4555 11.4129C50.3089 11.4129 50.9489 11.3062 51.3755 11.0929C51.8022 10.8796 52.0889 10.5062 52.2355 9.97289C52.3822 9.42622 52.4555 8.66622 52.4555 7.69289C52.4555 6.73289 52.3822 5.98622 52.2355 5.45289C52.0889 4.91956 51.8022 4.54622 51.3755 4.33289C50.9489 4.10622 50.3089 3.99289 49.4555 3.99289C48.6155 3.99289 47.9755 4.10622 47.5355 4.33289C47.1089 4.54622 46.8155 4.91956 46.6555 5.45289C46.5089 5.98622 46.4355 6.73289 46.4355 7.69289C46.4355 8.66622 46.5089 9.42622 46.6555 9.97289C46.8155 10.5062 47.1089 10.8796 47.5355 11.0929C47.9755 11.3062 48.6155 11.4129 49.4555 11.4129ZM60.859 14.0329H57.659V1.37289H60.859V6.67289C60.8857 6.67289 60.9057 6.67289 60.919 6.67289C61.0523 6.67289 61.2057 6.56622 61.379 6.35289C61.5657 6.13956 61.7323 5.92622 61.879 5.71289L64.559 1.37289H68.039V1.43289L65.759 5.11289C65.559 5.44622 65.3323 5.80622 65.079 6.19289C64.8257 6.56622 64.5723 6.89956 64.319 7.19289C64.079 7.47289 63.8657 7.64622 63.679 7.71289V7.77289C63.8657 7.85289 64.079 8.02622 64.319 8.29289C64.5723 8.54622 64.8257 8.84622 65.079 9.19289C65.3457 9.52622 65.599 9.85956 65.839 10.1929L68.499 13.9729V14.0329H64.819L62.319 10.1929V10.2129C62.239 10.0796 62.1123 9.90622 61.939 9.69289C61.779 9.46622 61.6057 9.25956 61.419 9.07289C61.2457 8.88622 61.0923 8.79289 60.959 8.79289C60.9323 8.79289 60.9123 8.79289 60.899 8.79289C60.8857 8.79289 60.8723 8.79289 60.859 8.79289V14.0329ZM72.9879 14.0329H69.7879V1.37289H75.8279C77.4146 1.37289 78.5679 1.73289 79.2879 2.45289C80.0212 3.15956 80.3879 4.20622 80.3879 5.59289C80.3879 6.63289 80.1279 7.52622 79.6079 8.27289C79.0879 9.00622 78.4012 9.46622 77.5479 9.65289L77.5279 9.71289C77.8612 9.92622 78.2279 10.2796 78.6279 10.7729C79.0279 11.2662 79.4212 11.8062 79.8079 12.3929C80.2079 12.9662 80.5612 13.5062 80.8679 14.0129V14.0329H77.1479L74.9879 10.8329C74.8012 10.5529 74.6479 10.3529 74.5279 10.2329C74.4212 10.1129 74.2879 10.0396 74.1279 10.0129C73.9812 9.98622 73.7412 9.97289 73.4079 9.97289H72.9879V14.0329ZM75.3079 3.97289H72.9879V7.37289H75.3079C75.9746 7.37289 76.4346 7.23956 76.6879 6.97289C76.9546 6.70622 77.0879 6.27289 77.0879 5.67289C77.0879 5.07289 76.9546 4.63956 76.6879 4.37289C76.4346 4.10622 75.9746 3.97289 75.3079 3.97289Z" fill="black"/>
</svg>
