<svg width="25" height="25" viewBox="0 0 25 25" fill="none" xmlns="http://www.w3.org/2000/svg">
<path fill-rule="evenodd" clip-rule="evenodd" d="M10.5312 3.61914C14.6734 3.61914 18.0312 6.97701 18.0312 11.1191C18.0312 12.8293 17.4589 14.4058 16.4952 15.6674L19.7384 18.912C20.1289 19.3026 20.1289 19.9357 19.7384 20.3262C19.3779 20.6867 18.8106 20.7145 18.4184 20.4094L18.3241 20.3262L15.0795 17.0831C13.8179 18.0468 12.2414 18.6191 10.5312 18.6191C6.38911 18.6191 3.03125 15.2613 3.03125 11.1191C3.03125 6.97701 6.38911 3.61914 10.5312 3.61914ZM10.5312 5.61914C7.49368 5.61914 5.03125 8.08157 5.03125 11.1191C5.03125 14.1567 7.49368 16.6191 10.5312 16.6191C11.8824 16.6191 13.1197 16.1319 14.0772 15.3236C14.1223 15.1728 14.2051 15.0311 14.3241 14.912C14.4432 14.7929 14.5849 14.7102 14.7353 14.6637C15.544 13.7076 16.0312 12.4703 16.0312 11.1191C16.0312 8.08157 13.5688 5.61914 10.5312 5.61914Z" fill="#7E84A3"/>
</svg>
