<svg width="25" height="25" viewBox="0 0 25 25" fill="none" xmlns="http://www.w3.org/2000/svg">
<mask id="mask0_95_1542" style="mask-type:alpha" maskUnits="userSpaceOnUse" x="0" y="0" width="25" height="25">
<rect x="24.0381" y="0.280273" width="24" height="24" transform="rotate(90 24.0381 0.280273)" fill="#D9D9D9"/>
</mask>
<g mask="url(#mask0_95_1542)">
<path d="M12.0373 12.8801L15.9373 8.98008C16.1206 8.79674 16.354 8.70508 16.6373 8.70508C16.9206 8.70508 17.154 8.79674 17.3373 8.98008C17.5206 9.16341 17.6123 9.39674 17.6123 9.68008C17.6123 9.96341 17.5206 10.1967 17.3373 10.3801L12.7373 14.9801C12.6373 15.0801 12.529 15.1509 12.4123 15.1926C12.2956 15.2342 12.1706 15.2551 12.0373 15.2551C11.904 15.2551 11.779 15.2342 11.6623 15.1926C11.5456 15.1509 11.4373 15.0801 11.3373 14.9801L6.7373 10.3801C6.55397 10.1967 6.4623 9.96341 6.4623 9.68008C6.4623 9.39674 6.55397 9.16341 6.7373 8.98008C6.92064 8.79674 7.15397 8.70508 7.4373 8.70508C7.72064 8.70508 7.95397 8.79674 8.1373 8.98008L12.0373 12.8801Z" fill="#1C1B1F"/>
</g>
</svg>
