<svg width="25" height="25" viewBox="0 0 25 25" fill="none" xmlns="http://www.w3.org/2000/svg">
<mask id="mask0_44_2300" style="mask-type:alpha" maskUnits="userSpaceOnUse" x="0" y="0" width="25" height="25">
<rect x="0.5" y="0.5" width="24" height="24" fill="#D9D9D9"/>
</mask>
<g mask="url(#mask0_44_2300)">
<path d="M13.0998 12.5008L9.1998 8.60078C9.01647 8.41745 8.9248 8.18411 8.9248 7.90078C8.9248 7.61745 9.01647 7.38411 9.1998 7.20078C9.38314 7.01745 9.61647 6.92578 9.8998 6.92578C10.1831 6.92578 10.4165 7.01745 10.5998 7.20078L15.1998 11.8008C15.2998 11.9008 15.3706 12.0091 15.4123 12.1258C15.454 12.2424 15.4748 12.3674 15.4748 12.5008C15.4748 12.6341 15.454 12.7591 15.4123 12.8758C15.3706 12.9924 15.2998 13.1008 15.1998 13.2008L10.5998 17.8008C10.4165 17.9841 10.1831 18.0758 9.8998 18.0758C9.61647 18.0758 9.38314 17.9841 9.1998 17.8008C9.01647 17.6174 8.9248 17.3841 8.9248 17.1008C8.9248 16.8174 9.01647 16.5841 9.1998 16.4008L13.0998 12.5008Z" fill="#1C1B1F"/>
</g>
</svg>
