<svg width="25" height="24" viewBox="0 0 25 24" fill="none" xmlns="http://www.w3.org/2000/svg">
<mask id="mask0_44_2294" style="mask-type:alpha" maskUnits="userSpaceOnUse" x="0" y="0" width="25" height="24">
<rect x="24.5" y="24" width="24" height="24" transform="rotate(-180 24.5 24)" fill="#D9D9D9"/>
</mask>
<g mask="url(#mask0_44_2294)">
<path d="M11.9002 11.9992L15.8002 15.8992C15.9835 16.0826 16.0752 16.3159 16.0752 16.5992C16.0752 16.8826 15.9835 17.1159 15.8002 17.2992C15.6169 17.4826 15.3835 17.5742 15.1002 17.5742C14.8169 17.5742 14.5835 17.4826 14.4002 17.2992L9.8002 12.6992C9.7002 12.5992 9.62936 12.4909 9.5877 12.3742C9.54603 12.2576 9.5252 12.1326 9.5252 11.9992C9.5252 11.8659 9.54603 11.7409 9.5877 11.6242C9.62936 11.5076 9.7002 11.3992 9.8002 11.2992L14.4002 6.69922C14.5835 6.51589 14.8169 6.42422 15.1002 6.42422C15.3835 6.42422 15.6169 6.51589 15.8002 6.69922C15.9835 6.88255 16.0752 7.11588 16.0752 7.39922C16.0752 7.68255 15.9835 7.91588 15.8002 8.09922L11.9002 11.9992Z" fill="#1C1B1F"/>
</g>
</svg>
