<svg width="21" height="21" viewBox="0 0 21 21" fill="none" xmlns="http://www.w3.org/2000/svg">
<mask id="mask0_29_644" style="mask-type:alpha" maskUnits="userSpaceOnUse" x="0" y="0" width="21" height="21">
<rect x="0.03125" y="0.619141" width="20" height="20" fill="#D9D9D9"/>
</mask>
<g mask="url(#mask0_29_644)">
<path d="M10.0312 12.2856C9.79514 12.2856 9.59722 12.2058 9.4375 12.0461C9.27778 11.8863 9.19792 11.6884 9.19792 11.4523C9.19792 11.2162 9.27778 11.0183 9.4375 10.8586C9.59722 10.6988 9.79514 10.619 10.0312 10.619C10.2674 10.619 10.4653 10.6988 10.625 10.8586C10.7847 11.0183 10.8646 11.2162 10.8646 11.4523C10.8646 11.6884 10.7847 11.8863 10.625 12.0461C10.4653 12.2058 10.2674 12.2856 10.0312 12.2856ZM6.69792 12.2856C6.46181 12.2856 6.26389 12.2058 6.10417 12.0461C5.94444 11.8863 5.86458 11.6884 5.86458 11.4523C5.86458 11.2162 5.94444 11.0183 6.10417 10.8586C6.26389 10.6988 6.46181 10.619 6.69792 10.619C6.93403 10.619 7.13194 10.6988 7.29167 10.8586C7.45139 11.0183 7.53125 11.2162 7.53125 11.4523C7.53125 11.6884 7.45139 11.8863 7.29167 12.0461C7.13194 12.2058 6.93403 12.2856 6.69792 12.2856ZM13.3646 12.2856C13.1285 12.2856 12.9306 12.2058 12.7708 12.0461C12.6111 11.8863 12.5312 11.6884 12.5312 11.4523C12.5312 11.2162 12.6111 11.0183 12.7708 10.8586C12.9306 10.6988 13.1285 10.619 13.3646 10.619C13.6007 10.619 13.7986 10.6988 13.9583 10.8586C14.1181 11.0183 14.1979 11.2162 14.1979 11.4523C14.1979 11.6884 14.1181 11.8863 13.9583 12.0461C13.7986 12.2058 13.6007 12.2856 13.3646 12.2856ZM10.0312 15.619C9.79514 15.619 9.59722 15.5391 9.4375 15.3794C9.27778 15.2197 9.19792 15.0218 9.19792 14.7856C9.19792 14.5495 9.27778 14.3516 9.4375 14.1919C9.59722 14.0322 9.79514 13.9523 10.0312 13.9523C10.2674 13.9523 10.4653 14.0322 10.625 14.1919C10.7847 14.3516 10.8646 14.5495 10.8646 14.7856C10.8646 15.0218 10.7847 15.2197 10.625 15.3794C10.4653 15.5391 10.2674 15.619 10.0312 15.619ZM6.69792 15.619C6.46181 15.619 6.26389 15.5391 6.10417 15.3794C5.94444 15.2197 5.86458 15.0218 5.86458 14.7856C5.86458 14.5495 5.94444 14.3516 6.10417 14.1919C6.26389 14.0322 6.46181 13.9523 6.69792 13.9523C6.93403 13.9523 7.13194 14.0322 7.29167 14.1919C7.45139 14.3516 7.53125 14.5495 7.53125 14.7856C7.53125 15.0218 7.45139 15.2197 7.29167 15.3794C7.13194 15.5391 6.93403 15.619 6.69792 15.619ZM13.3646 15.619C13.1285 15.619 12.9306 15.5391 12.7708 15.3794C12.6111 15.2197 12.5312 15.0218 12.5312 14.7856C12.5312 14.5495 12.6111 14.3516 12.7708 14.1919C12.9306 14.0322 13.1285 13.9523 13.3646 13.9523C13.6007 13.9523 13.7986 14.0322 13.9583 14.1919C14.1181 14.3516 14.1979 14.5495 14.1979 14.7856C14.1979 15.0218 14.1181 15.2197 13.9583 15.3794C13.7986 15.5391 13.6007 15.619 13.3646 15.619ZM4.19792 18.9523C3.73958 18.9523 3.34722 18.7891 3.02083 18.4627C2.69444 18.1363 2.53125 17.744 2.53125 17.2856V5.61898C2.53125 5.16064 2.69444 4.76828 3.02083 4.44189C3.34722 4.11551 3.73958 3.95231 4.19792 3.95231H5.03125V2.28564H6.69792V3.95231H13.3646V2.28564H15.0312V3.95231H15.8646C16.3229 3.95231 16.7153 4.11551 17.0417 4.44189C17.3681 4.76828 17.5312 5.16064 17.5312 5.61898V17.2856C17.5312 17.744 17.3681 18.1363 17.0417 18.4627C16.7153 18.7891 16.3229 18.9523 15.8646 18.9523H4.19792ZM4.19792 17.2856H15.8646V8.95231H4.19792V17.2856Z" fill="#1C1B1F"/>
</g>
</svg>
