<svg width="25" height="25" viewBox="0 0 25 25" fill="none" xmlns="http://www.w3.org/2000/svg">
<mask id="mask0_44_1054" style="mask-type:alpha" maskUnits="userSpaceOnUse" x="0" y="0" width="25" height="25">
<rect x="0.5" y="0.5" width="24" height="24" fill="#D9D9D9"/>
</mask>
<g mask="url(#mask0_44_1054)">
<path d="M4.5 19.5V5.5C4.5 4.95 4.69583 4.47917 5.0875 4.0875C5.47917 3.69583 5.95 3.5 6.5 3.5H18.5C19.05 3.5 19.5208 3.69583 19.9125 4.0875C20.3042 4.47917 20.5 4.95 20.5 5.5V19.5H21.5C21.7833 19.5 22.0208 19.5958 22.2125 19.7875C22.4042 19.9792 22.5 20.2167 22.5 20.5C22.5 20.7833 22.4042 21.0208 22.2125 21.2125C22.0208 21.4042 21.7833 21.5 21.5 21.5H3.5C3.21667 21.5 2.97917 21.4042 2.7875 21.2125C2.59583 21.0208 2.5 20.7833 2.5 20.5C2.5 20.2167 2.59583 19.9792 2.7875 19.7875C2.97917 19.5958 3.21667 19.5 3.5 19.5H4.5ZM8.725 12.5C9.85833 13.25 10.7333 14.275 11.35 15.575C11.9667 16.875 12.3333 18.1833 12.45 19.5H12.55C12.6667 18.1833 13.0333 16.875 13.65 15.575C14.2667 14.275 15.1417 13.25 16.275 12.5C15.1417 11.75 14.2667 10.725 13.65 9.425C13.0333 8.125 12.6667 6.81667 12.55 5.5H12.45C12.3333 6.81667 11.9667 8.125 11.35 9.425C10.7333 10.725 9.85833 11.75 8.725 12.5Z" fill="#1C1B1F"/>
</g>
</svg>
