<svg width="17" height="16" viewBox="0 0 17 16" fill="none" xmlns="http://www.w3.org/2000/svg">
<mask id="mask0_29_2232" style="mask-type:alpha" maskUnits="userSpaceOnUse" x="0" y="0" width="17" height="16">
<rect x="0.773438" y="0.0878906" width="15.4486" height="15.4486" fill="#D9D9D9"/>
</mask>
<g mask="url(#mask0_29_2232)">
<path d="M5.27959 13.6055C4.92556 13.6055 4.62249 13.4795 4.37037 13.2274C4.11826 12.9752 3.9922 12.6722 3.9922 12.3181V3.95012C3.80982 3.95012 3.65695 3.88844 3.53357 3.76506C3.4102 3.64169 3.34851 3.48881 3.34851 3.30643C3.34851 3.12405 3.4102 2.97117 3.53357 2.8478C3.65695 2.72442 3.80982 2.66274 3.9922 2.66274H6.56698C6.56698 2.48036 6.62866 2.32748 6.75204 2.2041C6.87541 2.08073 7.02829 2.01904 7.21067 2.01904H9.78544C9.96782 2.01904 10.1207 2.08073 10.2441 2.2041C10.3674 2.32748 10.4291 2.48036 10.4291 2.66274H13.0039C13.1863 2.66274 13.3392 2.72442 13.4625 2.8478C13.5859 2.97117 13.6476 3.12405 13.6476 3.30643C13.6476 3.48881 13.5859 3.64169 13.4625 3.76506C13.3392 3.88844 13.1863 3.95012 13.0039 3.95012V12.3181C13.0039 12.6722 12.8779 12.9752 12.6257 13.2274C12.3736 13.4795 12.0706 13.6055 11.7165 13.6055H5.27959ZM11.7165 3.95012H5.27959V12.3181H11.7165V3.95012ZM7.21067 11.0307C7.39305 11.0307 7.54593 10.9691 7.6693 10.8457C7.79268 10.7223 7.85436 10.5694 7.85436 10.3871V5.8812C7.85436 5.69882 7.79268 5.54594 7.6693 5.42257C7.54593 5.2992 7.39305 5.23751 7.21067 5.23751C7.02829 5.23751 6.87541 5.2992 6.75204 5.42257C6.62866 5.54594 6.56698 5.69882 6.56698 5.8812V10.3871C6.56698 10.5694 6.62866 10.7223 6.75204 10.8457C6.87541 10.9691 7.02829 11.0307 7.21067 11.0307ZM9.78544 11.0307C9.96782 11.0307 10.1207 10.9691 10.2441 10.8457C10.3674 10.7223 10.4291 10.5694 10.4291 10.3871V5.8812C10.4291 5.69882 10.3674 5.54594 10.2441 5.42257C10.1207 5.2992 9.96782 5.23751 9.78544 5.23751C9.60306 5.23751 9.45019 5.2992 9.32681 5.42257C9.20344 5.54594 9.14175 5.69882 9.14175 5.8812V10.3871C9.14175 10.5694 9.20344 10.7223 9.32681 10.8457C9.45019 10.9691 9.60306 11.0307 9.78544 11.0307Z" fill="white"/>
</g>
</svg>
