<svg width="21" height="21" viewBox="0 0 21 21" fill="none" xmlns="http://www.w3.org/2000/svg">
<mask id="mask0_29_2099" style="mask-type:alpha" maskUnits="userSpaceOnUse" x="0" y="0" width="21" height="21">
<rect x="0.222656" y="0.260742" width="20" height="20" fill="#D9D9D9"/>
</mask>
<g mask="url(#mask0_29_2099)">
<path d="M7.72257 16.9276C7.26424 16.9276 6.87188 16.7644 6.54549 16.438C6.2191 16.1116 6.05591 15.7192 6.05591 15.2609C6.05591 14.8026 6.2191 14.4102 6.54549 14.0838C6.87188 13.7574 7.26424 13.5942 7.72257 13.5942C8.18091 13.5942 8.57327 13.7574 8.89966 14.0838C9.22605 14.4102 9.38924 14.8026 9.38924 15.2609C9.38924 15.7192 9.22605 16.1116 8.89966 16.438C8.57327 16.7644 8.18091 16.9276 7.72257 16.9276ZM12.7226 16.9276C12.2642 16.9276 11.8719 16.7644 11.5455 16.438C11.2191 16.1116 11.0559 15.7192 11.0559 15.2609C11.0559 14.8026 11.2191 14.4102 11.5455 14.0838C11.8719 13.7574 12.2642 13.5942 12.7226 13.5942C13.1809 13.5942 13.5733 13.7574 13.8997 14.0838C14.226 14.4102 14.3892 14.8026 14.3892 15.2609C14.3892 15.7192 14.226 16.1116 13.8997 16.438C13.5733 16.7644 13.1809 16.9276 12.7226 16.9276ZM7.72257 11.9276C7.26424 11.9276 6.87188 11.7644 6.54549 11.438C6.2191 11.1116 6.05591 10.7192 6.05591 10.2609C6.05591 9.80257 6.2191 9.41021 6.54549 9.08382C6.87188 8.75743 7.26424 8.59424 7.72257 8.59424C8.18091 8.59424 8.57327 8.75743 8.89966 9.08382C9.22605 9.41021 9.38924 9.80257 9.38924 10.2609C9.38924 10.7192 9.22605 11.1116 8.89966 11.438C8.57327 11.7644 8.18091 11.9276 7.72257 11.9276ZM12.7226 11.9276C12.2642 11.9276 11.8719 11.7644 11.5455 11.438C11.2191 11.1116 11.0559 10.7192 11.0559 10.2609C11.0559 9.80257 11.2191 9.41021 11.5455 9.08382C11.8719 8.75743 12.2642 8.59424 12.7226 8.59424C13.1809 8.59424 13.5733 8.75743 13.8997 9.08382C14.226 9.41021 14.3892 9.80257 14.3892 10.2609C14.3892 10.7192 14.226 11.1116 13.8997 11.438C13.5733 11.7644 13.1809 11.9276 12.7226 11.9276ZM7.72257 6.92757C7.26424 6.92757 6.87188 6.76438 6.54549 6.43799C6.2191 6.1116 6.05591 5.71924 6.05591 5.2609C6.05591 4.80257 6.2191 4.41021 6.54549 4.08382C6.87188 3.75743 7.26424 3.59424 7.72257 3.59424C8.18091 3.59424 8.57327 3.75743 8.89966 4.08382C9.22605 4.41021 9.38924 4.80257 9.38924 5.2609C9.38924 5.71924 9.22605 6.1116 8.89966 6.43799C8.57327 6.76438 8.18091 6.92757 7.72257 6.92757ZM12.7226 6.92757C12.2642 6.92757 11.8719 6.76438 11.5455 6.43799C11.2191 6.1116 11.0559 5.71924 11.0559 5.2609C11.0559 4.80257 11.2191 4.41021 11.5455 4.08382C11.8719 3.75743 12.2642 3.59424 12.7226 3.59424C13.1809 3.59424 13.5733 3.75743 13.8997 4.08382C14.226 4.41021 14.3892 4.80257 14.3892 5.2609C14.3892 5.71924 14.226 6.1116 13.8997 6.43799C13.5733 6.76438 13.1809 6.92757 12.7226 6.92757Z" fill="#7E84A3"/>
</g>
</svg>
