<svg width="20" height="21" viewBox="0 0 20 21" fill="none" xmlns="http://www.w3.org/2000/svg">
<mask id="mask0_44_1388" style="mask-type:alpha" maskUnits="userSpaceOnUse" x="0" y="0" width="20" height="21">
<rect y="0.619141" width="20" height="20" fill="#D9D9D9"/>
</mask>
<g mask="url(#mask0_44_1388)">
<path d="M10.0242 17.3994C9.34615 17.3994 8.77306 17.1653 8.3049 16.6972C7.83674 16.229 7.60266 15.6559 7.60266 14.9779C7.60266 14.4182 7.76947 13.9259 8.1031 13.5008C8.43674 13.0756 8.86185 12.7878 9.37844 12.6371V11.2649H6.79548C6.44032 11.2649 6.13629 11.1384 5.88337 10.8855C5.63046 10.6326 5.504 10.3286 5.504 9.9734V8.68192H4.53539C4.35243 8.68192 4.19907 8.62004 4.0753 8.49627C3.95153 8.3725 3.88965 8.21914 3.88965 8.03618V4.80748C3.88965 4.62452 3.95153 4.47115 4.0753 4.34739C4.19907 4.22362 4.35243 4.16174 4.53539 4.16174H7.76409C7.94705 4.16174 8.10041 4.22362 8.22418 4.34739C8.34795 4.47115 8.40983 4.62452 8.40983 4.80748V8.03618C8.40983 8.21914 8.34795 8.3725 8.22418 8.49627C8.10041 8.62004 7.94705 8.68192 7.76409 8.68192H6.79548V9.9734H13.2529V8.6012C12.7363 8.45053 12.3112 8.16264 11.9775 7.73752C11.6439 7.31241 11.4771 6.82003 11.4771 6.26039C11.4771 5.58237 11.7112 5.00927 12.1793 4.54111C12.6475 4.07295 13.2206 3.83887 13.8986 3.83887C14.5767 3.83887 15.1497 4.07295 15.6179 4.54111C16.0861 5.00927 16.3201 5.58237 16.3201 6.26039C16.3201 6.82003 16.1533 7.31241 15.8197 7.73752C15.4861 8.16264 15.061 8.45053 14.5444 8.6012V9.9734C14.5444 10.3286 14.4179 10.6326 14.165 10.8855C13.9121 11.1384 13.608 11.2649 13.2529 11.2649H10.6699V12.6371C11.1865 12.7878 11.6116 13.0756 11.9453 13.5008C12.2789 13.9259 12.4457 14.4182 12.4457 14.9779C12.4457 15.6559 12.2116 16.229 11.7435 16.6972C11.2753 17.1653 10.7022 17.3994 10.0242 17.3994Z" fill="#1C1B1F"/>
</g>
</svg>
