<svg width="25" height="25" viewBox="0 0 25 25" fill="none" xmlns="http://www.w3.org/2000/svg">
<mask id="mask0_29_1946" style="mask-type:alpha" maskUnits="userSpaceOnUse" x="0" y="0" width="25" height="25">
<rect x="0.5" y="0.5" width="24" height="24" fill="#D9D9D9"/>
</mask>
<g mask="url(#mask0_29_1946)">
<path d="M12.5001 17.1885L8.60988 19.5345C8.46488 19.6192 8.31963 19.6547 8.17413 19.6412C8.02863 19.6277 7.89696 19.5787 7.77913 19.4942C7.66113 19.4096 7.57005 19.299 7.50588 19.1625C7.44188 19.026 7.43163 18.875 7.47513 18.7095L8.50788 14.2922L5.07338 11.3192C4.94505 11.2077 4.8633 11.0786 4.82813 10.9317C4.7928 10.7849 4.80205 10.6422 4.85588 10.5037C4.90971 10.3654 4.9873 10.2523 5.08863 10.1645C5.18996 10.0767 5.32846 10.0192 5.50413 9.99224L10.0366 9.59624L11.7964 5.42499C11.8604 5.26982 11.9575 5.15507 12.0876 5.08074C12.2178 5.0064 12.3553 4.96924 12.5001 4.96924C12.645 4.96924 12.7825 5.0064 12.9126 5.08074C13.0428 5.15507 13.1399 5.26982 13.2039 5.42499L14.9636 9.59624L19.4961 9.99224C19.6718 10.0192 19.8103 10.0767 19.9116 10.1645C20.013 10.2523 20.0905 10.3654 20.1444 10.5037C20.1982 10.6422 20.2075 10.7849 20.1721 10.9317C20.137 11.0786 20.0552 11.2077 19.9269 11.3192L16.4924 14.2922L17.5251 18.7095C17.5686 18.875 17.5584 19.026 17.4944 19.1625C17.4302 19.299 17.3391 19.4096 17.2211 19.4942C17.1033 19.5787 16.9716 19.6277 16.8261 19.6412C16.6806 19.6547 16.5354 19.6192 16.3904 19.5345L12.5001 17.1885Z" fill="#F99600"/>
</g>
</svg>
