<svg width="25" height="25" viewBox="0 0 25 25" fill="none" xmlns="http://www.w3.org/2000/svg">
<mask id="mask0_44_1048" style="mask-type:alpha" maskUnits="userSpaceOnUse" x="0" y="0" width="25" height="25">
<rect x="0.5" y="0.5" width="24" height="24" fill="#D9D9D9"/>
</mask>
<g mask="url(#mask0_44_1048)">
<path d="M18.5 18.5C18.9167 18.5 19.2708 18.3542 19.5625 18.0625C19.8542 17.7708 20 17.4167 20 17C20 16.5833 19.8542 16.2292 19.5625 15.9375C19.2708 15.6458 18.9167 15.5 18.5 15.5C18.0833 15.5 17.7292 15.6458 17.4375 15.9375C17.1458 16.2292 17 16.5833 17 17C17 17.4167 17.1458 17.7708 17.4375 18.0625C17.7292 18.3542 18.0833 18.5 18.5 18.5ZM18.5 21.5C19 21.5 19.4667 21.3833 19.9 21.15C20.3333 20.9167 20.6917 20.5917 20.975 20.175C20.5917 19.9417 20.1917 19.7708 19.775 19.6625C19.3583 19.5542 18.9333 19.5 18.5 19.5C18.0667 19.5 17.6417 19.5542 17.225 19.6625C16.8083 19.7708 16.4083 19.9417 16.025 20.175C16.3083 20.5917 16.6667 20.9167 17.1 21.15C17.5333 21.3833 18 21.5 18.5 21.5ZM9.5 8.5H15.5V6.5C15.5 5.66667 15.2083 4.95833 14.625 4.375C14.0417 3.79167 13.3333 3.5 12.5 3.5C11.6667 3.5 10.9583 3.79167 10.375 4.375C9.79167 4.95833 9.5 5.66667 9.5 6.5V8.5ZM6.5 22.5C5.95 22.5 5.47917 22.3042 5.0875 21.9125C4.69583 21.5208 4.5 21.05 4.5 20.5V10.5C4.5 9.95 4.69583 9.47917 5.0875 9.0875C5.47917 8.69583 5.95 8.5 6.5 8.5H7.5V6.5C7.5 5.11667 7.9875 3.9375 8.9625 2.9625C9.9375 1.9875 11.1167 1.5 12.5 1.5C13.8833 1.5 15.0625 1.9875 16.0375 2.9625C17.0125 3.9375 17.5 5.11667 17.5 6.5V8.5H18.5C19.05 8.5 19.5208 8.69583 19.9125 9.0875C20.3042 9.47917 20.5 9.95 20.5 10.5V10.65C20.5 10.9333 20.3875 11.1667 20.1625 11.35C19.9375 11.5333 19.675 11.6 19.375 11.55C19.2417 11.5333 19.1 11.5208 18.95 11.5125C18.8 11.5042 18.65 11.5 18.5 11.5C16.55 11.5 14.8958 12.1792 13.5375 13.5375C12.1792 14.8958 11.5 16.55 11.5 18.5C11.5 18.9833 11.5542 19.4625 11.6625 19.9375C11.7708 20.4125 11.9167 20.8667 12.1 21.3C12.2333 21.5833 12.2208 21.8542 12.0625 22.1125C11.9042 22.3708 11.6833 22.5 11.4 22.5H6.5ZM18.5 23.5C17.1167 23.5 15.9375 23.0125 14.9625 22.0375C13.9875 21.0625 13.5 19.8833 13.5 18.5C13.5 17.1167 13.9875 15.9375 14.9625 14.9625C15.9375 13.9875 17.1167 13.5 18.5 13.5C19.8833 13.5 21.0625 13.9875 22.0375 14.9625C23.0125 15.9375 23.5 17.1167 23.5 18.5C23.5 19.8833 23.0125 21.0625 22.0375 22.0375C21.0625 23.0125 19.8833 23.5 18.5 23.5Z" fill="#1C1B1F"/>
</g>
</svg>
