<svg width="25" height="24" viewBox="0 0 25 24" fill="none" xmlns="http://www.w3.org/2000/svg">
<mask id="mask0_44_1433" style="mask-type:alpha" maskUnits="userSpaceOnUse" x="0" y="0" width="25" height="24">
<rect x="0.832031" width="24" height="24" fill="#D9D9D9"/>
</mask>
<g mask="url(#mask0_44_1433)">
<path d="M12.832 20C12.282 20 11.8112 19.8042 11.4195 19.4125C11.0279 19.0208 10.832 18.55 10.832 18C10.832 17.45 11.0279 16.9792 11.4195 16.5875C11.8112 16.1958 12.282 16 12.832 16C13.382 16 13.8529 16.1958 14.2445 16.5875C14.6362 16.9792 14.832 17.45 14.832 18C14.832 18.55 14.6362 19.0208 14.2445 19.4125C13.8529 19.8042 13.382 20 12.832 20ZM12.832 14C12.282 14 11.8112 13.8042 11.4195 13.4125C11.0279 13.0208 10.832 12.55 10.832 12C10.832 11.45 11.0279 10.9792 11.4195 10.5875C11.8112 10.1958 12.282 10 12.832 10C13.382 10 13.8529 10.1958 14.2445 10.5875C14.6362 10.9792 14.832 11.45 14.832 12C14.832 12.55 14.6362 13.0208 14.2445 13.4125C13.8529 13.8042 13.382 14 12.832 14ZM12.832 8C12.282 8 11.8112 7.80417 11.4195 7.4125C11.0279 7.02083 10.832 6.55 10.832 6C10.832 5.45 11.0279 4.97917 11.4195 4.5875C11.8112 4.19583 12.282 4 12.832 4C13.382 4 13.8529 4.19583 14.2445 4.5875C14.6362 4.97917 14.832 5.45 14.832 6C14.832 6.55 14.6362 7.02083 14.2445 7.4125C13.8529 7.80417 13.382 8 12.832 8Z" fill="#1C1B1F"/>
</g>
</svg>
