<svg width="21" height="20" viewBox="0 0 21 20" fill="none" xmlns="http://www.w3.org/2000/svg">
<mask id="mask0_29_2147" style="mask-type:alpha" maskUnits="userSpaceOnUse" x="0" y="0" width="21" height="20">
<rect x="0.933594" width="20" height="20" fill="#D9D9D9"/>
</mask>
<g mask="url(#mask0_29_2147)">
<path d="M10.1003 10.8332H5.93368C5.69756 10.8332 5.49965 10.7533 5.33993 10.5936C5.1802 10.4339 5.10034 10.2359 5.10034 9.99984C5.10034 9.76373 5.1802 9.56581 5.33993 9.40609C5.49965 9.24637 5.69756 9.1665 5.93368 9.1665H10.1003V4.99984C10.1003 4.76373 10.1802 4.56581 10.3399 4.40609C10.4996 4.24637 10.6976 4.1665 10.9337 4.1665C11.1698 4.1665 11.3677 4.24637 11.5274 4.40609C11.6871 4.56581 11.767 4.76373 11.767 4.99984V9.1665H15.9337C16.1698 9.1665 16.3677 9.24637 16.5274 9.40609C16.6871 9.56581 16.767 9.76373 16.767 9.99984C16.767 10.2359 16.6871 10.4339 16.5274 10.5936C16.3677 10.7533 16.1698 10.8332 15.9337 10.8332H11.767V14.9998C11.767 15.2359 11.6871 15.4339 11.5274 15.5936C11.3677 15.7533 11.1698 15.8332 10.9337 15.8332C10.6976 15.8332 10.4996 15.7533 10.3399 15.5936C10.1802 15.4339 10.1003 15.2359 10.1003 14.9998V10.8332Z" fill="url(#paint0_linear_29_2147)"/>
</g>
<defs>
<linearGradient id="paint0_linear_29_2147" x1="6.39461" y1="1.09601" x2="10.9997" y2="20.827" gradientUnits="userSpaceOnUse">
<stop stop-color="#17E180"/>
<stop offset="1" stop-color="#009883"/>
</linearGradient>
</defs>
</svg>
