<svg width="21" height="21" viewBox="0 0 21 21" fill="none" xmlns="http://www.w3.org/2000/svg">
<mask id="mask0_29_1928" style="mask-type:alpha" maskUnits="userSpaceOnUse" x="0" y="0" width="21" height="21">
<rect x="0.5" y="0.5" width="20" height="20" fill="#D9D9D9"/>
</mask>
<g mask="url(#mask0_29_1928)">
<path d="M8.41667 13.8333C6.90278 13.8333 5.62153 13.309 4.57292 12.2604C3.52431 11.2118 3 9.93056 3 8.41667C3 6.90278 3.52431 5.62153 4.57292 4.57292C5.62153 3.52431 6.90278 3 8.41667 3C9.93056 3 11.2118 3.52431 12.2604 4.57292C13.309 5.62153 13.8333 6.90278 13.8333 8.41667C13.8333 9.02778 13.7361 9.60417 13.5417 10.1458C13.3472 10.6875 13.0833 11.1667 12.75 11.5833L17.4167 16.25C17.5694 16.4028 17.6458 16.5972 17.6458 16.8333C17.6458 17.0694 17.5694 17.2639 17.4167 17.4167C17.2639 17.5694 17.0694 17.6458 16.8333 17.6458C16.5972 17.6458 16.4028 17.5694 16.25 17.4167L11.5833 12.75C11.1667 13.0833 10.6875 13.3472 10.1458 13.5417C9.60417 13.7361 9.02778 13.8333 8.41667 13.8333ZM8.41667 12.1667C9.45833 12.1667 10.3438 11.8021 11.0729 11.0729C11.8021 10.3438 12.1667 9.45833 12.1667 8.41667C12.1667 7.375 11.8021 6.48958 11.0729 5.76042C10.3438 5.03125 9.45833 4.66667 8.41667 4.66667C7.375 4.66667 6.48958 5.03125 5.76042 5.76042C5.03125 6.48958 4.66667 7.375 4.66667 8.41667C4.66667 9.45833 5.03125 10.3438 5.76042 11.0729C6.48958 11.8021 7.375 12.1667 8.41667 12.1667Z" fill="#1C1B1F"/>
</g>
</svg>
