<svg width="20" height="20" viewBox="0 0 20 20" fill="none" xmlns="http://www.w3.org/2000/svg">
<mask id="mask0_2016_778" style="mask-type:alpha" maskUnits="userSpaceOnUse" x="0" y="0" width="20" height="20">
<rect width="20" height="20" fill="#D9D9D9"/>
</mask>
<g mask="url(#mask0_2016_778)">
<path d="M3.33333 7.49984C3.09722 7.49984 2.89931 7.41998 2.73958 7.26025C2.57986 7.10053 2.5 6.90262 2.5 6.6665V4.99984C2.5 4.76373 2.57986 4.56581 2.73958 4.40609C2.89931 4.24637 3.09722 4.1665 3.33333 4.1665H5C5.23611 4.1665 5.43403 4.24637 5.59375 4.40609C5.75347 4.56581 5.83333 4.76373 5.83333 4.99984V6.6665C5.83333 6.90262 5.75347 7.10053 5.59375 7.26025C5.43403 7.41998 5.23611 7.49984 5 7.49984H3.33333ZM7.5 7.49984C7.26389 7.49984 7.06597 7.41998 6.90625 7.26025C6.74653 7.10053 6.66667 6.90262 6.66667 6.6665V4.99984C6.66667 4.76373 6.74653 4.56581 6.90625 4.40609C7.06597 4.24637 7.26389 4.1665 7.5 4.1665H16.6667C16.9028 4.1665 17.1007 4.24637 17.2604 4.40609C17.4201 4.56581 17.5 4.76373 17.5 4.99984V6.6665C17.5 6.90262 17.4201 7.10053 17.2604 7.26025C17.1007 7.41998 16.9028 7.49984 16.6667 7.49984H7.5ZM7.5 11.6665C7.26389 11.6665 7.06597 11.5866 6.90625 11.4269C6.74653 11.2672 6.66667 11.0693 6.66667 10.8332V9.1665C6.66667 8.93039 6.74653 8.73248 6.90625 8.57275C7.06597 8.41303 7.26389 8.33317 7.5 8.33317H16.6667C16.9028 8.33317 17.1007 8.41303 17.2604 8.57275C17.4201 8.73248 17.5 8.93039 17.5 9.1665V10.8332C17.5 11.0693 17.4201 11.2672 17.2604 11.4269C17.1007 11.5866 16.9028 11.6665 16.6667 11.6665H7.5ZM7.5 15.8332C7.26389 15.8332 7.06597 15.7533 6.90625 15.5936C6.74653 15.4339 6.66667 15.2359 6.66667 14.9998V13.3332C6.66667 13.0971 6.74653 12.8991 6.90625 12.7394C7.06597 12.5797 7.26389 12.4998 7.5 12.4998H16.6667C16.9028 12.4998 17.1007 12.5797 17.2604 12.7394C17.4201 12.8991 17.5 13.0971 17.5 13.3332V14.9998C17.5 15.2359 17.4201 15.4339 17.2604 15.5936C17.1007 15.7533 16.9028 15.8332 16.6667 15.8332H7.5ZM3.33333 15.8332C3.09722 15.8332 2.89931 15.7533 2.73958 15.5936C2.57986 15.4339 2.5 15.2359 2.5 14.9998V13.3332C2.5 13.0971 2.57986 12.8991 2.73958 12.7394C2.89931 12.5797 3.09722 12.4998 3.33333 12.4998H5C5.23611 12.4998 5.43403 12.5797 5.59375 12.7394C5.75347 12.8991 5.83333 13.0971 5.83333 13.3332V14.9998C5.83333 15.2359 5.75347 15.4339 5.59375 15.5936C5.43403 15.7533 5.23611 15.8332 5 15.8332H3.33333ZM3.33333 11.6665C3.09722 11.6665 2.89931 11.5866 2.73958 11.4269C2.57986 11.2672 2.5 11.0693 2.5 10.8332V9.1665C2.5 8.93039 2.57986 8.73248 2.73958 8.57275C2.89931 8.41303 3.09722 8.33317 3.33333 8.33317H5C5.23611 8.33317 5.43403 8.41303 5.59375 8.57275C5.75347 8.73248 5.83333 8.93039 5.83333 9.1665V10.8332C5.83333 11.0693 5.75347 11.2672 5.59375 11.4269C5.43403 11.5866 5.23611 11.6665 5 11.6665H3.33333Z" fill="#1C1B1F"/>
</g>
</svg>
